<svg xmlns="http://www.w3.org/2000/svg" width="960" height="540" viewBox="0 0 960 540" role="img" aria-labelledby="title desc">
<title id="title">开发工具集</title><desc id="desc">Skill 工作方式的概念示意，不是运行结果截图。</desc>
<rect width="960" height="540" fill="#26342E"/>
<text x="52" y="63" font-family="Consolas, monospace" font-size="22" font-weight="500" text-anchor="start" fill="#D9E2D2">SKILL / 05</text>
<text x="908" y="63" font-family="Microsoft YaHei, PingFang SC, sans-serif" font-size="22" font-weight="500" text-anchor="end" fill="#D9E2D2">开发工具集</text>
<path d="M52 86 H908" fill="none" stroke="#687B6B" stroke-width="1" stroke-linecap="round" stroke-linejoin="round"/>
<rect x="101" y="151" width="137" height="122" rx="6" fill="#D8DCC4" stroke="#718071" stroke-width="3"/><text x="169" y="206" font-family="Consolas, monospace" font-size="28" font-weight="500" text-anchor="middle" fill="#273E35">API</text><path d="M137 232 H202" fill="none" stroke="#7F927B" stroke-width="4" stroke-linecap="round" stroke-linejoin="round"/><rect x="254" y="151" width="137" height="122" rx="6" fill="#35413D" stroke="#718071" stroke-width="3"/><text x="322" y="206" font-family="Consolas, monospace" font-size="28" font-weight="500" text-anchor="middle" fill="#D5E0CD">MAP</text><path d="M290 232 H355" fill="none" stroke="#7F927B" stroke-width="4" stroke-linecap="round" stroke-linejoin="round"/><rect x="407" y="151" width="137" height="122" rx="6" fill="#35413D" stroke="#718071" stroke-width="3"/><text x="475" y="206" font-family="Consolas, monospace" font-size="28" font-weight="500" text-anchor="middle" fill="#D5E0CD">DATA</text><path d="M443 232 H508" fill="none" stroke="#7F927B" stroke-width="4" stroke-linecap="round" stroke-linejoin="round"/><rect x="560" y="151" width="137" height="122" rx="6" fill="#35413D" stroke="#718071" stroke-width="3"/><text x="628" y="206" font-family="Consolas, monospace" font-size="28" font-weight="500" text-anchor="middle" fill="#D5E0CD">GIT</text><path d="M596 232 H661" fill="none" stroke="#7F927B" stroke-width="4" stroke-linecap="round" stroke-linejoin="round"/><rect x="713" y="151" width="137" height="122" rx="6" fill="#35413D" stroke="#718071" stroke-width="3"/><text x="781" y="206" font-family="Consolas, monospace" font-size="28" font-weight="500" text-anchor="middle" fill="#D5E0CD">LOG</text><path d="M749 232 H814" fill="none" stroke="#7F927B" stroke-width="4" stroke-linecap="round" stroke-linejoin="round"/><rect x="101" y="294" width="137" height="122" rx="6" fill="#35413D" stroke="#718071" stroke-width="3"/><text x="169" y="349" font-family="Consolas, monospace" font-size="28" font-weight="500" text-anchor="middle" fill="#D5E0CD">ENV</text><path d="M137 375 H202" fill="none" stroke="#7F927B" stroke-width="4" stroke-linecap="round" stroke-linejoin="round"/><rect x="254" y="294" width="137" height="122" rx="6" fill="#35413D" stroke="#718071" stroke-width="3"/><text x="322" y="349" font-family="Consolas, monospace" font-size="28" font-weight="500" text-anchor="middle" fill="#D5E0CD">TASK</text><path d="M290 375 H355" fill="none" stroke="#7F927B" stroke-width="4" stroke-linecap="round" stroke-linejoin="round"/><rect x="407" y="294" width="137" height="122" rx="6" fill="#D8DCC4" stroke="#718071" stroke-width="3"/><text x="475" y="349" font-family="Consolas, monospace" font-size="28" font-weight="500" text-anchor="middle" fill="#273E35">DOC</text><path d="M443 375 H508" fill="none" stroke="#7F927B" stroke-width="4" stroke-linecap="round" stroke-linejoin="round"/><rect x="560" y="294" width="137" height="122" rx="6" fill="#35413D" stroke="#718071" stroke-width="3"/><text x="628" y="349" font-family="Consolas, monospace" font-size="28" font-weight="500" text-anchor="middle" fill="#D5E0CD">SYS</text><path d="M596 375 H661" fill="none" stroke="#7F927B" stroke-width="4" stroke-linecap="round" stroke-linejoin="round"/><rect x="713" y="294" width="137" height="122" rx="6" fill="#35413D" stroke="#718071" stroke-width="3"/><text x="781" y="349" font-family="Consolas, monospace" font-size="28" font-weight="500" text-anchor="middle" fill="#D5E0CD">CLI</text><path d="M749 375 H814" fill="none" stroke="#7F927B" stroke-width="4" stroke-linecap="round" stroke-linejoin="round"/>
<path d="M52 484 H908" fill="none" stroke="#687B6B" stroke-width="1" stroke-linecap="round" stroke-linejoin="round"/>
<text x="52" y="520" font-family="Consolas, monospace" font-size="18" font-weight="500" text-anchor="start" fill="#D9E2D2">DAIZHOUCHEN / OPEN SOURCE</text>
<text x="908" y="520" font-family="Microsoft YaHei, PingFang SC, sans-serif" font-size="18" font-weight="500" text-anchor="end" fill="#D9E2D2">工作方式示意</text>
</svg>